<svg width="256" height="256" viewBox="0 0 256 256" fill="none" xmlns="http://www.w3.org/2000/svg">
  <defs>
    <linearGradient id="shieldGradient" x1="38" y1="20" x2="216" y2="236" gradientUnits="userSpaceOnUse">
      <stop offset="0" stop-color="#1D4ED8"/>
      <stop offset="1" stop-color="#0F172A"/>
    </linearGradient>
    <linearGradient id="coreGradient" x1="72" y1="60" x2="184" y2="196" gradientUnits="userSpaceOnUse">
      <stop offset="0" stop-color="#38BDF8"/>
      <stop offset="1" stop-color="#2563EB"/>
    </linearGradient>
  </defs>

  <path d="M128 20C102 42 72 54 44 54C40.7 54 38 56.7 38 60V122C38 182 78 224 124.6 239.6C126.8 240.3 129.2 240.3 131.4 239.6C178 224 218 182 218 122V60C218 56.7 215.3 54 212 54C184 54 154 42 128 20Z" fill="url(#shieldGradient)"/>

  <path d="M128 48C109.4 62.3 87.8 71 66.8 72.8V122C66.8 167.9 96.1 200.8 128 213.3C159.9 200.8 189.2 167.9 189.2 122V72.8C168.2 71 146.6 62.3 128 48Z" fill="#0B1220" fill-opacity="0.42"/>

  <path d="M128 61L183 124L160 124L146 143L110 143L96 124L73 124L128 61Z" fill="url(#coreGradient)"/>
  <path d="M127.8 88L151 116H138.5L127.8 129.3L117.1 116H104.6L127.8 88Z" fill="#E0F2FE"/>

  <path d="M101 174H155" stroke="#7DD3FC" stroke-width="10" stroke-linecap="round"/>
  <path d="M111 191H145" stroke="#7DD3FC" stroke-width="8" stroke-linecap="round" opacity="0.75"/>
</svg>
